<svg width="24" height="14" viewBox="0 0 24 14" fill="none" xmlns="http://www.w3.org/2000/svg">
<path d="M18.8574 5.14233C18.5183 5.14233 18.1869 5.24288 17.9049 5.43124C17.623 5.61961 17.4033 5.88735 17.2736 6.20059C17.1438 6.51384 17.1099 6.85852 17.176 7.19106C17.2422 7.5236 17.4054 7.82905 17.6452 8.0688C17.8849 8.30855 18.1904 8.47182 18.5229 8.53797C18.8554 8.60411 19.2001 8.57016 19.5134 8.44041C19.8266 8.31066 20.0944 8.09094 20.2827 7.80903C20.4711 7.52711 20.5716 7.19567 20.5716 6.85662C20.5716 6.40196 20.391 5.96593 20.0695 5.64444C19.748 5.32295 19.312 5.14233 18.8574 5.14233Z" fill="white"/>
<path d="M11.9999 10.2861C11.3218 10.2861 10.6589 10.085 10.0951 9.70828C9.53123 9.33155 9.09178 8.79608 8.83228 8.16959C8.57277 7.5431 8.50488 6.85373 8.63717 6.18865C8.76946 5.52357 9.096 4.91266 9.5755 4.43316C10.055 3.95367 10.6659 3.62713 11.331 3.49484C11.9961 3.36254 12.6854 3.43044 13.3119 3.68994C13.9384 3.94944 14.4739 4.38889 14.8506 4.95272C15.2274 5.51654 15.4284 6.17942 15.4284 6.85753C15.4273 7.7665 15.0657 8.63791 14.423 9.28064C13.7802 9.92338 12.9088 10.285 11.9999 10.2861ZM11.9999 5.14324C11.6608 5.14324 11.3294 5.24378 11.0475 5.43215C10.7655 5.62052 10.5458 5.88826 10.4161 6.2015C10.2863 6.51475 10.2524 6.85943 10.3185 7.19197C10.3847 7.52451 10.5479 7.82997 10.7877 8.06971C11.0274 8.30946 11.3329 8.47273 11.6654 8.53888C11.998 8.60502 12.3426 8.57107 12.6559 8.44132C12.9691 8.31157 13.2369 8.09185 13.4252 7.80994C13.6136 7.52802 13.7141 7.19658 13.7141 6.85753C13.7137 6.40301 13.5329 5.96724 13.2115 5.64585C12.8902 5.32445 12.4544 5.1437 11.9999 5.14324Z" fill="white"/>
<path d="M5.143 5.14233C4.80394 5.14233 4.4725 5.24288 4.19059 5.43124C3.90868 5.61961 3.68895 5.88735 3.5592 6.20059C3.42945 6.51384 3.39551 6.85852 3.46165 7.19106C3.5278 7.5236 3.69107 7.82905 3.93081 8.0688C4.17056 8.30855 4.47602 8.47182 4.80856 8.53797C5.1411 8.60411 5.48578 8.57016 5.79903 8.44041C6.11227 8.31066 6.38001 8.09094 6.56838 7.80903C6.75674 7.52711 6.85728 7.19567 6.85728 6.85662C6.85728 6.40196 6.67667 5.96593 6.35518 5.64444C6.03369 5.32295 5.59766 5.14233 5.143 5.14233Z" fill="white"/>
<path d="M22.2857 13.7143H1.71429C1.25998 13.7132 0.824599 13.5322 0.503353 13.2109C0.182107 12.8897 0.00113153 12.4543 0 12V1.71429C0.00113153 1.25998 0.182107 0.824598 0.503353 0.503352C0.824599 0.182106 1.25998 0.00113153 1.71429 0H22.2857C22.74 0.00113153 23.1754 0.182106 23.4966 0.503352C23.8179 0.824598 23.9989 1.25998 24 1.71429V12C23.9993 12.4544 23.8185 12.8901 23.4971 13.2114C23.1758 13.5328 22.7402 13.7136 22.2857 13.7143ZM22.2857 1.71429H1.71429V12H22.2857V1.71429Z" fill="white"/>
</svg>
