<svg width="20" height="17" viewBox="0 0 20 17" fill="none" xmlns="http://www.w3.org/2000/svg">
<path d="M14.0909 15.727V14.0906C14.0909 13.2226 13.7461 12.3902 13.1324 11.7764C12.5186 11.1627 11.6862 10.8179 10.8182 10.8179H4.27273C3.40475 10.8179 2.57232 11.1627 1.95856 11.7764C1.3448 12.3902 1 13.2226 1 14.0906V15.727" stroke="white" stroke-width="1.5" stroke-linecap="round" stroke-linejoin="round"/>
<path d="M7.54568 7.54545C9.35315 7.54545 10.8184 6.0802 10.8184 4.27273C10.8184 2.46525 9.35315 1 7.54568 1C5.7382 1 4.27295 2.46525 4.27295 4.27273C4.27295 6.0802 5.7382 7.54545 7.54568 7.54545Z" stroke="white" stroke-width="1.5" stroke-linecap="round" stroke-linejoin="round"/>
<path d="M19 15.7273V14.0909C18.9994 13.3658 18.7581 12.6614 18.3138 12.0883C17.8695 11.5152 17.2475 11.1058 16.5454 10.9246" stroke="white" stroke-width="1.5" stroke-linecap="round" stroke-linejoin="round"/>
<path d="M13.2729 1.10596C13.9769 1.2862 14.6009 1.69562 15.0465 2.26967C15.4921 2.84371 15.7339 3.54973 15.7339 4.27641C15.7339 5.0031 15.4921 5.70911 15.0465 6.28316C14.6009 6.8572 13.9769 7.26662 13.2729 7.44687" stroke="white" stroke-width="1.5" stroke-linecap="round" stroke-linejoin="round"/>
</svg>
